<svg width="360" height="800" viewBox="0 0 360 800" fill="none" xmlns="http://www.w3.org/2000/svg">
<rect width="360" height="800" rx="20" fill="white"/>
<path d="M40.576 73L32.152 47.8H35.86L43.6 71.056H41.728L49.756 47.8H53.068L60.916 71.056H59.116L66.964 47.8H70.384L61.96 73H58.18L50.836 51.436H51.808L44.428 73H40.576ZM81.3744 73.216C79.3344 73.216 77.5344 72.796 75.9744 71.956C74.4384 71.116 73.2384 69.964 72.3744 68.5C71.5344 67.036 71.1144 65.356 71.1144 63.46C71.1144 61.564 71.5224 59.884 72.3384 58.42C73.1784 56.956 74.3184 55.816 75.7584 55C77.2224 54.16 78.8664 53.74 80.6904 53.74C82.5384 53.74 84.1704 54.148 85.5864 54.964C87.0024 55.78 88.1064 56.932 88.8984 58.42C89.7144 59.884 90.1224 61.6 90.1224 63.568C90.1224 63.712 90.1104 63.88 90.0864 64.072C90.0864 64.264 90.0744 64.444 90.0504 64.612H73.8144V62.128H88.2504L86.8464 62.992C86.8704 61.768 86.6184 60.676 86.0904 59.716C85.5624 58.756 84.8304 58.012 83.8944 57.484C82.9824 56.932 81.9144 56.656 80.6904 56.656C79.4904 56.656 78.4224 56.932 77.4864 57.484C76.5504 58.012 75.8184 58.768 75.2904 59.752C74.7624 60.712 74.4984 61.816 74.4984 63.064V63.64C74.4984 64.912 74.7864 66.052 75.3624 67.06C75.9624 68.044 76.7904 68.812 77.8464 69.364C78.9024 69.916 80.1144 70.192 81.4824 70.192C82.6104 70.192 83.6304 70 84.5424 69.616C85.4784 69.232 86.2944 68.656 86.9904 67.888L88.8984 70.12C88.0344 71.128 86.9544 71.896 85.6584 72.424C84.3864 72.952 82.9584 73.216 81.3744 73.216ZM94.9574 73V46.288H98.4134V73H94.9574ZM113.364 73.216C111.42 73.216 109.68 72.796 108.144 71.956C106.632 71.116 105.444 69.964 104.58 68.5C103.716 67.036 103.284 65.356 103.284 63.46C103.284 61.564 103.716 59.884 104.58 58.42C105.444 56.956 106.632 55.816 108.144 55C109.68 54.16 111.42 53.74 113.364 53.74C115.092 53.74 116.628 54.088 117.972 54.784C119.34 55.456 120.396 56.464 121.14 57.808L118.512 59.5C117.888 58.564 117.12 57.88 116.208 57.448C115.32 56.992 114.36 56.764 113.328 56.764C112.08 56.764 110.964 57.04 109.98 57.592C108.996 58.144 108.216 58.924 107.64 59.932C107.064 60.916 106.776 62.092 106.776 63.46C106.776 64.828 107.064 66.016 107.64 67.024C108.216 68.032 108.996 68.812 109.98 69.364C110.964 69.916 112.08 70.192 113.328 70.192C114.36 70.192 115.32 69.976 116.208 69.544C117.12 69.088 117.888 68.392 118.512 67.456L121.14 69.112C120.396 70.432 119.34 71.452 117.972 72.172C116.628 72.868 115.092 73.216 113.364 73.216ZM133.541 73.216C131.621 73.216 129.917 72.796 128.429 71.956C126.941 71.116 125.765 69.964 124.901 68.5C124.037 67.012 123.605 65.332 123.605 63.46C123.605 61.564 124.037 59.884 124.901 58.42C125.765 56.956 126.941 55.816 128.429 55C129.917 54.16 131.621 53.74 133.541 53.74C135.437 53.74 137.129 54.16 138.617 55C140.129 55.816 141.305 56.956 142.145 58.42C143.009 59.86 143.441 61.54 143.441 63.46C143.441 65.356 143.009 67.036 142.145 68.5C141.305 69.964 140.129 71.116 138.617 71.956C137.129 72.796 135.437 73.216 133.541 73.216ZM133.541 70.192C134.765 70.192 135.857 69.916 136.817 69.364C137.801 68.812 138.569 68.032 139.121 67.024C139.673 65.992 139.949 64.804 139.949 63.46C139.949 62.092 139.673 60.916 139.121 59.932C138.569 58.924 137.801 58.144 136.817 57.592C135.857 57.04 134.765 56.764 133.541 56.764C132.317 56.764 131.225 57.04 130.265 57.592C129.305 58.144 128.537 58.924 127.961 59.932C127.385 60.916 127.097 62.092 127.097 63.46C127.097 64.804 127.385 65.992 127.961 67.024C128.537 68.032 129.305 68.812 130.265 69.364C131.225 69.916 132.317 70.192 133.541 70.192ZM172.125 53.74C173.661 53.74 175.017 54.04 176.193 54.64C177.369 55.24 178.281 56.152 178.929 57.376C179.601 58.6 179.937 60.148 179.937 62.02V73H176.481V62.416C176.481 60.568 176.049 59.176 175.185 58.24C174.321 57.304 173.109 56.836 171.549 56.836C170.397 56.836 169.389 57.076 168.525 57.556C167.661 58.036 166.989 58.744 166.509 59.68C166.053 60.616 165.825 61.78 165.825 63.172V73H162.369V62.416C162.369 60.568 161.937 59.176 161.073 58.24C160.233 57.304 159.021 56.836 157.437 56.836C156.309 56.836 155.313 57.076 154.449 57.556C153.585 58.036 152.913 58.744 152.433 59.68C151.953 60.616 151.713 61.78 151.713 63.172V73H148.257V53.92H151.569V58.996L151.029 57.7C151.629 56.452 152.553 55.48 153.801 54.784C155.049 54.088 156.501 53.74 158.157 53.74C159.981 53.74 161.553 54.196 162.873 55.108C164.193 55.996 165.057 57.352 165.465 59.176L164.061 58.6C164.637 57.136 165.645 55.96 167.085 55.072C168.525 54.184 170.205 53.74 172.125 53.74ZM194.828 73.216C192.788 73.216 190.988 72.796 189.428 71.956C187.892 71.116 186.692 69.964 185.828 68.5C184.988 67.036 184.568 65.356 184.568 63.46C184.568 61.564 184.976 59.884 185.792 58.42C186.632 56.956 187.772 55.816 189.212 55C190.676 54.16 192.32 53.74 194.144 53.74C195.992 53.74 197.624 54.148 199.04 54.964C200.456 55.78 201.56 56.932 202.352 58.42C203.168 59.884 203.576 61.6 203.576 63.568C203.576 63.712 203.564 63.88 203.54 64.072C203.54 64.264 203.528 64.444 203.504 64.612H187.268V62.128H201.704L200.3 62.992C200.324 61.768 200.072 60.676 199.544 59.716C199.016 58.756 198.284 58.012 197.348 57.484C196.436 56.932 195.368 56.656 194.144 56.656C192.944 56.656 191.876 56.932 190.94 57.484C190.004 58.012 189.272 58.768 188.744 59.752C188.216 60.712 187.952 61.816 187.952 63.064V63.64C187.952 64.912 188.24 66.052 188.816 67.06C189.416 68.044 190.244 68.812 191.3 69.364C192.356 69.916 193.568 70.192 194.936 70.192C196.064 70.192 197.084 70 197.996 69.616C198.932 69.232 199.748 68.656 200.444 67.888L202.352 70.12C201.488 71.128 200.408 71.896 199.112 72.424C197.84 72.952 196.412 73.216 194.828 73.216ZM208.591 65.044L207.943 47.8H212.011L211.327 65.044H208.591ZM209.995 73.216C209.323 73.216 208.759 72.988 208.303 72.532C207.847 72.076 207.619 71.536 207.619 70.912C207.619 70.24 207.847 69.688 208.303 69.256C208.759 68.824 209.323 68.608 209.995 68.608C210.667 68.608 211.219 68.824 211.651 69.256C212.083 69.688 212.299 70.24 212.299 70.912C212.299 71.536 212.083 72.076 211.651 72.532C211.219 72.988 210.667 73.216 209.995 73.216Z" fill="black"/>
<rect x="31" y="103" width="298" height="60" rx="16" fill="#FFDDAF"/>
<path fill-rule="evenodd" clip-rule="evenodd" d="M54.1634 133.565C54.2852 133.462 54.4298 133.38 54.5891 133.324C54.7483 133.268 54.919 133.24 55.0913 133.24C55.2637 133.24 55.4344 133.268 55.5936 133.324C55.7528 133.38 55.8975 133.462 56.0193 133.565L61.069 137.843C61.3151 138.052 61.4534 138.334 61.4535 138.629C61.4536 138.924 61.3155 139.206 61.0696 139.415C60.8237 139.623 60.49 139.741 60.1421 139.741C59.7942 139.741 59.4605 139.624 59.2143 139.416L54.1647 135.138C54.0427 135.034 53.946 134.912 53.88 134.777C53.814 134.642 53.78 134.498 53.78 134.352C53.78 134.205 53.814 134.061 53.88 133.926C53.946 133.791 54.0427 133.669 54.1647 133.565H54.1634Z" fill="black"/>
<path fill-rule="evenodd" clip-rule="evenodd" d="M48.993 135.297C49.9403 135.297 50.8784 135.139 51.7536 134.831C52.6288 134.524 53.4241 134.074 54.094 133.507C54.7638 132.939 55.2952 132.266 55.6577 131.524C56.0202 130.783 56.2068 129.988 56.2068 129.185C56.2068 128.383 56.0202 127.588 55.6577 126.847C55.2952 126.105 54.7638 125.432 54.094 124.864C53.4241 124.297 52.6288 123.846 51.7536 123.539C50.8784 123.232 49.9403 123.074 48.993 123.074C47.0798 123.074 45.2449 123.718 43.8921 124.864C42.5392 126.01 41.7792 127.565 41.7792 129.185C41.7792 130.806 42.5392 132.361 43.8921 133.507C45.2449 134.653 47.0798 135.297 48.993 135.297V135.297ZM57.5184 129.185C57.5184 131.101 56.6202 132.938 55.0214 134.292C53.4226 135.647 51.2541 136.408 48.993 136.408C46.7319 136.408 44.5635 135.647 42.9646 134.292C41.3658 132.938 40.4676 131.101 40.4676 129.185C40.4676 127.27 41.3658 125.433 42.9646 124.078C44.5635 122.724 46.7319 121.963 48.993 121.963C51.2541 121.963 53.4226 122.724 55.0214 124.078C56.6202 125.433 57.5184 127.27 57.5184 129.185V129.185Z" fill="black"/>
<path d="M41.998 195.4H43.798V208H41.998V195.4ZM34.762 208H32.962V195.4H34.762V208ZM42.16 202.384H34.582V200.818H42.16V202.384ZM51.5076 208.108C50.4876 208.108 49.5876 207.898 48.8076 207.478C48.0396 207.058 47.4396 206.482 47.0076 205.75C46.5876 205.018 46.3776 204.178 46.3776 203.23C46.3776 202.282 46.5816 201.442 46.9896 200.71C47.4096 199.978 47.9796 199.408 48.6996 199C49.4316 198.58 50.2536 198.37 51.1656 198.37C52.0896 198.37 52.9056 198.574 53.6136 198.982C54.3216 199.39 54.8736 199.966 55.2696 200.71C55.6776 201.442 55.8816 202.3 55.8816 203.284C55.8816 203.356 55.8756 203.44 55.8636 203.536C55.8636 203.632 55.8576 203.722 55.8456 203.806H47.7276V202.564H54.9456L54.2436 202.996C54.2556 202.384 54.1296 201.838 53.8656 201.358C53.6016 200.878 53.2356 200.506 52.7676 200.242C52.3116 199.966 51.7776 199.828 51.1656 199.828C50.5656 199.828 50.0316 199.966 49.5636 200.242C49.0956 200.506 48.7296 200.884 48.4656 201.376C48.2016 201.856 48.0696 202.408 48.0696 203.032V203.32C48.0696 203.956 48.2136 204.526 48.5016 205.03C48.8016 205.522 49.2156 205.906 49.7436 206.182C50.2716 206.458 50.8776 206.596 51.5616 206.596C52.1256 206.596 52.6356 206.5 53.0916 206.308C53.5596 206.116 53.9676 205.828 54.3156 205.444L55.2696 206.56C54.8376 207.064 54.2976 207.448 53.6496 207.712C53.0136 207.976 52.2996 208.108 51.5076 208.108ZM64.7402 207.19V199.972H60.6002L60.5102 201.808C60.4862 202.408 60.4442 202.99 60.3842 203.554C60.3362 204.106 60.2522 204.616 60.1322 205.084C60.0242 205.552 59.8622 205.936 59.6462 206.236C59.4302 206.536 59.1422 206.722 58.7822 206.794L57.0722 206.488C57.4442 206.5 57.7442 206.38 57.9722 206.128C58.2002 205.864 58.3742 205.504 58.4942 205.048C58.6262 204.592 58.7222 204.076 58.7822 203.5C58.8422 202.912 58.8902 202.306 58.9262 201.682L59.0702 198.46H66.4682V207.19H64.7402ZM56.6942 210.214V206.488H67.9262V210.214H66.3062V208H58.3322V210.214H56.6942ZM75.8473 208V205.984L75.7573 205.606V202.168C75.7573 201.436 75.5413 200.872 75.1093 200.476C74.6893 200.068 74.0533 199.864 73.2013 199.864C72.6373 199.864 72.0853 199.96 71.5453 200.152C71.0053 200.332 70.5493 200.578 70.1773 200.89L69.4573 199.594C69.9493 199.198 70.5373 198.898 71.2213 198.694C71.9173 198.478 72.6433 198.37 73.3993 198.37C74.7073 198.37 75.7153 198.688 76.4233 199.324C77.1313 199.96 77.4853 200.932 77.4853 202.24V208H75.8473ZM72.7153 208.108C72.0073 208.108 71.3833 207.988 70.8433 207.748C70.3153 207.508 69.9073 207.178 69.6193 206.758C69.3313 206.326 69.1873 205.84 69.1873 205.3C69.1873 204.784 69.3073 204.316 69.5473 203.896C69.7993 203.476 70.2013 203.14 70.7533 202.888C71.3173 202.636 72.0733 202.51 73.0213 202.51H76.0453V203.752H73.0933C72.2293 203.752 71.6473 203.896 71.3473 204.184C71.0473 204.472 70.8973 204.82 70.8973 205.228C70.8973 205.696 71.0833 206.074 71.4553 206.362C71.8273 206.638 72.3433 206.776 73.0033 206.776C73.6513 206.776 74.2153 206.632 74.6953 206.344C75.1873 206.056 75.5413 205.636 75.7573 205.084L76.0993 206.272C75.8713 206.836 75.4693 207.286 74.8933 207.622C74.3173 207.946 73.5913 208.108 72.7153 208.108ZM80.4169 208V198.46H84.8449C85.9609 198.46 86.8369 198.676 87.4729 199.108C88.1209 199.528 88.4449 200.128 88.4449 200.908C88.4449 201.688 88.1389 202.294 87.5269 202.726C86.9269 203.146 86.1289 203.356 85.1329 203.356L85.4029 202.888C86.5429 202.888 87.3889 203.098 87.9409 203.518C88.4929 203.938 88.7689 204.556 88.7689 205.372C88.7689 206.2 88.4569 206.848 87.8329 207.316C87.2209 207.772 86.2789 208 85.0069 208H80.4169ZM82.1089 206.668H84.8809C85.6009 206.668 86.1409 206.56 86.5009 206.344C86.8609 206.116 87.0409 205.756 87.0409 205.264C87.0409 204.76 86.8729 204.394 86.5369 204.166C86.2129 203.926 85.6969 203.806 84.9889 203.806H82.1089V206.668ZM82.1089 202.564H84.7009C85.3609 202.564 85.8589 202.444 86.1949 202.204C86.5429 201.952 86.7169 201.604 86.7169 201.16C86.7169 200.704 86.5429 200.362 86.1949 200.134C85.8589 199.906 85.3609 199.792 84.7009 199.792H82.1089V202.564ZM91.2935 208V198.46H93.0215V202.51H98.4575V198.46H100.186V208H98.4575V204.004H93.0215V208H91.2935ZM107.451 208.108C106.491 208.108 105.639 207.898 104.895 207.478C104.151 207.058 103.563 206.482 103.131 205.75C102.699 205.006 102.483 204.166 102.483 203.23C102.483 202.282 102.699 201.442 103.131 200.71C103.563 199.978 104.151 199.408 104.895 199C105.639 198.58 106.491 198.37 107.451 198.37C108.399 198.37 109.245 198.58 109.989 199C110.745 199.408 111.333 199.978 111.753 200.71C112.185 201.43 112.401 202.27 112.401 203.23C112.401 204.178 112.185 205.018 111.753 205.75C111.333 206.482 110.745 207.058 109.989 207.478C109.245 207.898 108.399 208.108 107.451 208.108ZM107.451 206.596C108.063 206.596 108.609 206.458 109.089 206.182C109.581 205.906 109.965 205.516 110.241 205.012C110.517 204.496 110.655 203.902 110.655 203.23C110.655 202.546 110.517 201.958 110.241 201.466C109.965 200.962 109.581 200.572 109.089 200.296C108.609 200.02 108.063 199.882 107.451 199.882C106.839 199.882 106.293 200.02 105.813 200.296C105.333 200.572 104.949 200.962 104.661 201.466C104.373 201.958 104.229 202.546 104.229 203.23C104.229 203.902 104.373 204.496 104.661 205.012C104.949 205.516 105.333 205.906 105.813 206.182C106.293 206.458 106.839 206.596 107.451 206.596ZM119.371 208V198.46H128.209V208H126.481V199.54L126.895 199.972H120.685L121.099 199.54V208H119.371ZM136.43 208.108C135.638 208.108 134.912 207.928 134.252 207.568C133.604 207.196 133.082 206.65 132.686 205.93C132.302 205.21 132.11 204.31 132.11 203.23C132.11 202.15 132.296 201.25 132.668 200.53C133.052 199.81 133.568 199.27 134.216 198.91C134.876 198.55 135.614 198.37 136.43 198.37C137.366 198.37 138.194 198.574 138.914 198.982C139.634 199.39 140.204 199.96 140.624 200.692C141.044 201.412 141.254 202.258 141.254 203.23C141.254 204.202 141.044 205.054 140.624 205.786C140.204 206.518 139.634 207.088 138.914 207.496C138.194 207.904 137.366 208.108 136.43 208.108ZM131.372 211.492V198.46H133.028V201.034L132.92 203.248L133.1 205.462V211.492H131.372ZM136.286 206.596C136.898 206.596 137.444 206.458 137.924 206.182C138.416 205.906 138.8 205.516 139.076 205.012C139.364 204.496 139.508 203.902 139.508 203.23C139.508 202.546 139.364 201.958 139.076 201.466C138.8 200.962 138.416 200.572 137.924 200.296C137.444 200.02 136.898 199.882 136.286 199.882C135.686 199.882 135.14 200.02 134.648 200.296C134.168 200.572 133.784 200.962 133.496 201.466C133.22 201.958 133.082 202.546 133.082 203.23C133.082 203.902 133.22 204.496 133.496 205.012C133.784 205.516 134.168 205.906 134.648 206.182C135.14 206.458 135.686 206.596 136.286 206.596ZM147.671 208.108C146.711 208.108 145.859 207.898 145.115 207.478C144.371 207.058 143.783 206.482 143.351 205.75C142.919 205.006 142.703 204.166 142.703 203.23C142.703 202.282 142.919 201.442 143.351 200.71C143.783 199.978 144.371 199.408 145.115 199C145.859 198.58 146.711 198.37 147.671 198.37C148.619 198.37 149.465 198.58 150.209 199C150.965 199.408 151.553 199.978 151.973 200.71C152.405 201.43 152.621 202.27 152.621 203.23C152.621 204.178 152.405 205.018 151.973 205.75C151.553 206.482 150.965 207.058 150.209 207.478C149.465 207.898 148.619 208.108 147.671 208.108ZM147.671 206.596C148.283 206.596 148.829 206.458 149.309 206.182C149.801 205.906 150.185 205.516 150.461 205.012C150.737 204.496 150.875 203.902 150.875 203.23C150.875 202.546 150.737 201.958 150.461 201.466C150.185 200.962 149.801 200.572 149.309 200.296C148.829 200.02 148.283 199.882 147.671 199.882C147.059 199.882 146.513 200.02 146.033 200.296C145.553 200.572 145.169 200.962 144.881 201.466C144.593 201.958 144.449 202.546 144.449 203.23C144.449 203.902 144.593 204.496 144.881 205.012C145.169 205.516 145.553 205.906 146.033 206.182C146.513 206.458 147.059 206.596 147.671 206.596ZM159.094 208.108C158.122 208.108 157.252 207.898 156.484 207.478C155.728 207.058 155.134 206.482 154.702 205.75C154.27 205.018 154.054 204.178 154.054 203.23C154.054 202.282 154.27 201.442 154.702 200.71C155.134 199.978 155.728 199.408 156.484 199C157.252 198.58 158.122 198.37 159.094 198.37C159.958 198.37 160.726 198.544 161.398 198.892C162.082 199.228 162.61 199.732 162.982 200.404L161.668 201.25C161.356 200.782 160.972 200.44 160.516 200.224C160.072 199.996 159.592 199.882 159.076 199.882C158.452 199.882 157.894 200.02 157.402 200.296C156.91 200.572 156.52 200.962 156.232 201.466C155.944 201.958 155.8 202.546 155.8 203.23C155.8 203.914 155.944 204.508 156.232 205.012C156.52 205.516 156.91 205.906 157.402 206.182C157.894 206.458 158.452 206.596 159.076 206.596C159.592 206.596 160.072 206.488 160.516 206.272C160.972 206.044 161.356 205.696 161.668 205.228L162.982 206.056C162.61 206.716 162.082 207.226 161.398 207.586C160.726 207.934 159.958 208.108 159.094 208.108ZM165.039 208V198.46H166.821L170.925 205.516H170.205L174.417 198.46H176.037V208H174.471V200.404L174.759 200.566L170.907 206.92H170.151L166.281 200.44L166.623 200.368V208H165.039ZM183.307 208.108C182.347 208.108 181.495 207.898 180.751 207.478C180.007 207.058 179.419 206.482 178.987 205.75C178.555 205.006 178.339 204.166 178.339 203.23C178.339 202.282 178.555 201.442 178.987 200.71C179.419 199.978 180.007 199.408 180.751 199C181.495 198.58 182.347 198.37 183.307 198.37C184.255 198.37 185.101 198.58 185.845 199C186.601 199.408 187.189 199.978 187.609 200.71C188.041 201.43 188.257 202.27 188.257 203.23C188.257 204.178 188.041 205.018 187.609 205.75C187.189 206.482 186.601 207.058 185.845 207.478C185.101 207.898 184.255 208.108 183.307 208.108ZM183.307 206.596C183.919 206.596 184.465 206.458 184.945 206.182C185.437 205.906 185.821 205.516 186.097 205.012C186.373 204.496 186.511 203.902 186.511 203.23C186.511 202.546 186.373 201.958 186.097 201.466C185.821 200.962 185.437 200.572 184.945 200.296C184.465 200.02 183.919 199.882 183.307 199.882C182.695 199.882 182.149 200.02 181.669 200.296C181.189 200.572 180.805 200.962 180.517 201.466C180.229 201.958 180.085 202.546 180.085 203.23C180.085 203.902 180.229 204.496 180.517 205.012C180.805 205.516 181.189 205.906 181.669 206.182C182.149 206.458 182.695 206.596 183.307 206.596ZM192.11 208V199.522L192.542 199.972H188.618V198.46H197.33V199.972H193.424L193.838 199.522V208H192.11ZM203.975 208.108C203.183 208.108 202.457 207.928 201.797 207.568C201.149 207.196 200.627 206.65 200.231 205.93C199.847 205.21 199.655 204.31 199.655 203.23C199.655 202.15 199.841 201.25 200.213 200.53C200.597 199.81 201.113 199.27 201.761 198.91C202.421 198.55 203.159 198.37 203.975 198.37C204.911 198.37 205.739 198.574 206.459 198.982C207.179 199.39 207.749 199.96 208.169 200.692C208.589 201.412 208.799 202.258 208.799 203.23C208.799 204.202 208.589 205.054 208.169 205.786C207.749 206.518 207.179 207.088 206.459 207.496C205.739 207.904 204.911 208.108 203.975 208.108ZM198.917 211.492V198.46H200.573V201.034L200.465 203.248L200.645 205.462V211.492H198.917ZM203.831 206.596C204.443 206.596 204.989 206.458 205.469 206.182C205.961 205.906 206.345 205.516 206.621 205.012C206.909 204.496 207.053 203.902 207.053 203.23C207.053 202.546 206.909 201.958 206.621 201.466C206.345 200.962 205.961 200.572 205.469 200.296C204.989 200.02 204.443 199.882 203.831 199.882C203.231 199.882 202.685 200.02 202.193 200.296C201.713 200.572 201.329 200.962 201.041 201.466C200.765 201.958 200.627 202.546 200.627 203.23C200.627 203.902 200.765 204.496 201.041 205.012C201.329 205.516 201.713 205.906 202.193 206.182C202.685 206.458 203.231 206.596 203.831 206.596ZM215.378 208.108C214.358 208.108 213.458 207.898 212.678 207.478C211.91 207.058 211.31 206.482 210.878 205.75C210.458 205.018 210.248 204.178 210.248 203.23C210.248 202.282 210.452 201.442 210.86 200.71C211.28 199.978 211.85 199.408 212.57 199C213.302 198.58 214.124 198.37 215.036 198.37C215.96 198.37 216.776 198.574 217.484 198.982C218.192 199.39 218.744 199.966 219.14 200.71C219.548 201.442 219.752 202.3 219.752 203.284C219.752 203.356 219.746 203.44 219.734 203.536C219.734 203.632 219.728 203.722 219.716 203.806H211.598V202.564H218.816L218.114 202.996C218.126 202.384 218 201.838 217.736 201.358C217.472 200.878 217.106 200.506 216.638 200.242C216.182 199.966 215.648 199.828 215.036 199.828C214.436 199.828 213.902 199.966 213.434 200.242C212.966 200.506 212.6 200.884 212.336 201.376C212.072 201.856 211.94 202.408 211.94 203.032V203.32C211.94 203.956 212.084 204.526 212.372 205.03C212.672 205.522 213.086 205.906 213.614 206.182C214.142 206.458 214.748 206.596 215.432 206.596C215.996 206.596 216.506 206.5 216.962 206.308C217.43 206.116 217.838 205.828 218.186 205.444L219.14 206.56C218.708 207.064 218.168 207.448 217.52 207.712C216.884 207.976 216.17 208.108 215.378 208.108ZM222.253 208V198.46H223.981V202.51H229.417V198.46H231.145V208H229.417V204.004H223.981V208H222.253ZM234.325 208V198.46H236.053V202.51H241.489V198.46H243.217V208H241.489V204.004H236.053V208H234.325ZM255.829 208V198.46H257.557V208H255.829ZM250.699 201.7C251.911 201.712 252.829 201.988 253.453 202.528C254.089 203.068 254.407 203.83 254.407 204.814C254.407 205.846 254.059 206.644 253.363 207.208C252.679 207.76 251.695 208.03 250.411 208.018L246.397 208V198.46H248.125V201.682L250.699 201.7ZM250.285 206.704C251.053 206.716 251.641 206.56 252.049 206.236C252.457 205.912 252.661 205.432 252.661 204.796C252.661 204.172 252.457 203.716 252.049 203.428C251.653 203.14 251.065 202.99 250.285 202.978L248.125 202.942V206.686L250.285 206.704ZM264.984 208.108C263.964 208.108 263.064 207.898 262.284 207.478C261.516 207.058 260.916 206.482 260.484 205.75C260.064 205.018 259.854 204.178 259.854 203.23C259.854 202.282 260.058 201.442 260.466 200.71C260.886 199.978 261.456 199.408 262.176 199C262.908 198.58 263.73 198.37 264.642 198.37C265.566 198.37 266.382 198.574 267.09 198.982C267.798 199.39 268.35 199.966 268.746 200.71C269.154 201.442 269.358 202.3 269.358 203.284C269.358 203.356 269.352 203.44 269.34 203.536C269.34 203.632 269.334 203.722 269.322 203.806H261.204V202.564H268.422L267.72 202.996C267.732 202.384 267.606 201.838 267.342 201.358C267.078 200.878 266.712 200.506 266.244 200.242C265.788 199.966 265.254 199.828 264.642 199.828C264.042 199.828 263.508 199.966 263.04 200.242C262.572 200.506 262.206 200.884 261.942 201.376C261.678 201.856 261.546 202.408 261.546 203.032V203.32C261.546 203.956 261.69 204.526 261.978 205.03C262.278 205.522 262.692 205.906 263.22 206.182C263.748 206.458 264.354 206.596 265.038 206.596C265.602 206.596 266.112 206.5 266.568 206.308C267.036 206.116 267.444 205.828 267.792 205.444L268.746 206.56C268.314 207.064 267.774 207.448 267.126 207.712C266.49 207.976 265.776 208.108 264.984 208.108ZM272.237 200.836C271.901 200.836 271.613 200.722 271.373 200.494C271.133 200.254 271.013 199.954 271.013 199.594C271.013 199.234 271.133 198.94 271.373 198.712C271.613 198.484 271.901 198.37 272.237 198.37C272.561 198.37 272.837 198.484 273.065 198.712C273.305 198.94 273.425 199.234 273.425 199.594C273.425 199.954 273.305 200.254 273.065 200.494C272.837 200.722 272.561 200.836 272.237 200.836ZM272.237 208.108C271.901 208.108 271.613 207.994 271.373 207.766C271.133 207.526 271.013 207.226 271.013 206.866C271.013 206.506 271.133 206.212 271.373 205.984C271.613 205.756 271.901 205.642 272.237 205.642C272.561 205.642 272.837 205.756 273.065 205.984C273.305 206.212 273.425 206.506 273.425 206.866C273.425 207.226 273.305 207.526 273.065 207.766C272.837 207.994 272.561 208.108 272.237 208.108Z" fill="black" fill-opacity="0.5"/>
</svg>
