<svg width="343" height="65" viewBox="0 0 343 65" fill="none" xmlns="http://www.w3.org/2000/svg">
<g filter="url(#filter0_d_10_40)">
<rect x="4" y="0.708984" width="335" height="56.291" rx="10" fill="#FFDDAF"/>
<path d="M108.747 39.58V25.58H120.807V39.58H118.847V26.8L119.327 27.32H110.227L110.727 26.8V39.58H108.747ZM130.273 39.7C129.393 39.7 128.586 39.5 127.853 39.1C127.133 38.6866 126.553 38.08 126.113 37.28C125.686 36.48 125.473 35.48 125.473 34.28C125.473 33.08 125.679 32.08 126.093 31.28C126.519 30.48 127.093 29.88 127.813 29.48C128.546 29.08 129.366 28.88 130.273 28.88C131.313 28.88 132.233 29.1066 133.033 29.56C133.833 30.0133 134.466 30.6466 134.933 31.46C135.399 32.26 135.633 33.2 135.633 34.28C135.633 35.36 135.399 36.3066 134.933 37.12C134.466 37.9333 133.833 38.5666 133.033 39.02C132.233 39.4733 131.313 39.7 130.273 39.7ZM124.653 43.46V28.98H126.493V31.84L126.373 34.3L126.573 36.76V43.46H124.653ZM130.113 38.02C130.793 38.02 131.399 37.8666 131.933 37.56C132.479 37.2533 132.906 36.82 133.213 36.26C133.533 35.6866 133.693 35.0266 133.693 34.28C133.693 33.52 133.533 32.8666 133.213 32.32C132.906 31.76 132.479 31.3266 131.933 31.02C131.399 30.7133 130.793 30.56 130.113 30.56C129.446 30.56 128.839 30.7133 128.293 31.02C127.759 31.3266 127.333 31.76 127.013 32.32C126.706 32.8666 126.553 33.52 126.553 34.28C126.553 35.0266 126.706 35.6866 127.013 36.26C127.333 36.82 127.759 37.2533 128.293 37.56C128.839 37.8666 129.446 38.02 130.113 38.02ZM142.762 39.7C141.696 39.7 140.749 39.4666 139.922 39C139.096 38.5333 138.442 37.8933 137.962 37.08C137.482 36.2533 137.242 35.32 137.242 34.28C137.242 33.2266 137.482 32.2933 137.962 31.48C138.442 30.6666 139.096 30.0333 139.922 29.58C140.749 29.1133 141.696 28.88 142.762 28.88C143.816 28.88 144.756 29.1133 145.582 29.58C146.422 30.0333 147.076 30.6666 147.542 31.48C148.022 32.28 148.262 33.2133 148.262 34.28C148.262 35.3333 148.022 36.2666 147.542 37.08C147.076 37.8933 146.422 38.5333 145.582 39C144.756 39.4666 143.816 39.7 142.762 39.7ZM142.762 38.02C143.442 38.02 144.049 37.8666 144.582 37.56C145.129 37.2533 145.556 36.82 145.862 36.26C146.169 35.6866 146.322 35.0266 146.322 34.28C146.322 33.52 146.169 32.8666 145.862 32.32C145.556 31.76 145.129 31.3266 144.582 31.02C144.049 30.7133 143.442 30.56 142.762 30.56C142.082 30.56 141.476 30.7133 140.942 31.02C140.409 31.3266 139.982 31.76 139.662 32.32C139.342 32.8666 139.182 33.52 139.182 34.28C139.182 35.0266 139.342 35.6866 139.662 36.26C139.982 36.82 140.409 37.2533 140.942 37.56C141.476 37.8666 142.082 38.02 142.762 38.02ZM157.997 38.68V30.66H153.397L153.297 32.7C153.27 33.3666 153.223 34.0133 153.157 34.64C153.103 35.2533 153.01 35.82 152.877 36.34C152.757 36.86 152.577 37.2866 152.337 37.62C152.097 37.9533 151.777 38.16 151.377 38.24L149.477 37.9C149.89 37.9133 150.223 37.78 150.477 37.5C150.73 37.2066 150.923 36.8066 151.057 36.3C151.203 35.7933 151.31 35.22 151.377 34.58C151.443 33.9266 151.497 33.2533 151.537 32.56L151.697 28.98H159.917V38.68H157.997ZM149.057 42.04V37.9H161.537V42.04H159.737V39.58H150.877V42.04H149.057ZM168.378 39.7C167.311 39.7 166.365 39.4666 165.538 39C164.711 38.5333 164.058 37.8933 163.578 37.08C163.098 36.2533 162.858 35.32 162.858 34.28C162.858 33.2266 163.098 32.2933 163.578 31.48C164.058 30.6666 164.711 30.0333 165.538 29.58C166.365 29.1133 167.311 28.88 168.378 28.88C169.431 28.88 170.371 29.1133 171.198 29.58C172.038 30.0333 172.691 30.6666 173.158 31.48C173.638 32.28 173.878 33.2133 173.878 34.28C173.878 35.3333 173.638 36.2666 173.158 37.08C172.691 37.8933 172.038 38.5333 171.198 39C170.371 39.4666 169.431 39.7 168.378 39.7ZM168.378 38.02C169.058 38.02 169.665 37.8666 170.198 37.56C170.745 37.2533 171.171 36.82 171.478 36.26C171.785 35.6866 171.938 35.0266 171.938 34.28C171.938 33.52 171.785 32.8666 171.478 32.32C171.171 31.76 170.745 31.3266 170.198 31.02C169.665 30.7133 169.058 30.56 168.378 30.56C167.698 30.56 167.091 30.7133 166.558 31.02C166.025 31.3266 165.598 31.76 165.278 32.32C164.958 32.8666 164.798 33.52 164.798 34.28C164.798 35.0266 164.958 35.6866 165.278 36.26C165.598 36.82 166.025 37.2533 166.558 37.56C167.091 37.8666 167.698 38.02 168.378 38.02ZM174.612 39.56L174.732 37.94C174.826 37.9533 174.912 37.9666 174.992 37.98C175.072 37.9933 175.146 38 175.212 38C175.639 38 175.972 37.8533 176.212 37.56C176.466 37.2666 176.652 36.88 176.772 36.4C176.892 35.9066 176.979 35.3533 177.032 34.74C177.086 34.1266 177.126 33.5133 177.152 32.9L177.332 28.98H185.472V39.58H183.552V30.1L184.012 30.66H178.572L179.012 30.08L178.872 33.02C178.832 33.9533 178.759 34.8266 178.652 35.64C178.546 36.4533 178.379 37.1666 178.152 37.78C177.939 38.3933 177.639 38.8733 177.252 39.22C176.879 39.5666 176.392 39.74 175.792 39.74C175.619 39.74 175.432 39.72 175.232 39.68C175.046 39.6533 174.839 39.6133 174.612 39.56ZM201.565 39.58L198.185 34.42L199.765 33.46L203.845 39.58H201.565ZM195.985 35.1V33.46H199.425V35.1H195.985ZM199.945 34.5L198.125 34.26L201.505 28.98H203.565L199.945 34.5ZM189.665 39.58H187.385L191.445 33.46L193.025 34.42L189.665 39.58ZM196.565 39.58H194.645V28.98H196.565V39.58ZM195.225 35.1H191.805V33.46H195.225V35.1ZM191.285 34.5L187.665 28.98H189.705L193.085 34.26L191.285 34.5ZM205.757 39.58V28.98H207.677V36.7L214.177 28.98H215.917V39.58H213.997V31.86L207.517 39.58H205.757ZM221.544 39.58V30.16L222.024 30.66H217.664V28.98H227.344V30.66H223.004L223.464 30.16V39.58H221.544ZM234.007 32.58C235.354 32.5933 236.381 32.9 237.087 33.5C237.794 34.1 238.147 34.9466 238.147 36.04C238.147 37.1866 237.761 38.0733 236.987 38.7C236.214 39.3133 235.121 39.6133 233.707 39.6L229.107 39.58V28.98H231.027V32.56L234.007 32.58ZM233.547 38.14C234.414 38.1533 235.067 37.98 235.507 37.62C235.961 37.26 236.187 36.7266 236.187 36.02C236.187 35.3266 235.967 34.82 235.527 34.5C235.087 34.18 234.427 34.0133 233.547 34L231.027 33.96V38.12L233.547 38.14Z" fill="black"/>
</g>
<defs>
<filter id="filter0_d_10_40" x="0" y="0.708984" width="343" height="64.2909" filterUnits="userSpaceOnUse" color-interpolation-filters="sRGB">
<feFlood flood-opacity="0" result="BackgroundImageFix"/>
<feColorMatrix in="SourceAlpha" type="matrix" values="0 0 0 0 0 0 0 0 0 0 0 0 0 0 0 0 0 0 127 0" result="hardAlpha"/>
<feOffset dy="4"/>
<feGaussianBlur stdDeviation="2"/>
<feComposite in2="hardAlpha" operator="out"/>
<feColorMatrix type="matrix" values="0 0 0 0 0 0 0 0 0 0 0 0 0 0 0 0 0 0 0.25 0"/>
<feBlend mode="normal" in2="BackgroundImageFix" result="effect1_dropShadow_10_40"/>
<feBlend mode="normal" in="SourceGraphic" in2="effect1_dropShadow_10_40" result="shape"/>
</filter>
</defs>
</svg>
